<!--?xml version="1.0" encoding="utf-8"?-->
<!-- Generator: Adobe Illustrator 15.1.0, SVG Export Plug-In . SVG Version: 6.00 Build 0)  -->

<svg version="1.1" id="_x32_" xmlns="http://www.w3.org/2000/svg" xmlns:xlink="http://www.w3.org/1999/xlink" x="0px" y="0px" width="512px" height="512px" viewBox="0 0 512 512" style="width: 256px; height: 256px; opacity: 1;" xml:space="preserve">
<style type="text/css">

	.st0{fill:#4B4B4B;}

</style>
<g>
	<path class="st0" d="M512,319.32c0-16.672-11.297-30.547-26.609-34.813c9.516-6.547,15.797-17.484,15.797-29.906
		c0-20.047-16.25-36.297-36.297-36.297h-35.656h-0.5h-2.094c-1.547,0-2.094,0-2.063,0c-0.438,0-0.813,0-1.328,0h-26.203
		c-14.672-0.625-30.484-3.125-38.547-11.766c-21.719-23.281,14.672-56.875,21.453-75.422c6.75-18.547,21.953-53.969,8-93.703
		c-14.641-41.781-59.234-34.688-66.25,7.563c-3.875,23.406-31.859,88.969-74.047,126.234
		c-37.469,33.125-70.891,55.703-85.328,73.578c-13.234,16.391-28.297,20.578-28.297,20.578v180.688c0,0,0,0,20.469,0
		c29.406,0,117.719,29.797,160.844,31.391c59.578,2.219,69.141,0.484,93.422-2.203l22.797-3.297
		c17.25-2.813,30.406-17.641,30.406-35.688c0-6.422-1.813-12.359-4.734-17.594c18.547-1.609,33.172-17,33.172-35.969
		c0-10.953-4.938-20.641-12.625-27.313C496.828,354.273,512,338.633,512,319.32z" style="fill: rgb(75, 75, 75);"></path>
	<path class="st0" d="M0,302.508v163.469c0,20.203,16.375,36.578,36.578,36.578h43.656c13.453,0,24.375-10.906,24.375-24.391
		v-212.25H36.578C16.375,265.914,0,282.289,0,302.508z M51.453,429.977c9.266,0,16.781,7.531,16.781,16.813
		s-7.516,16.797-16.781,16.797c-9.281,0-16.797-7.516-16.797-16.797S42.172,429.977,51.453,429.977z" style="fill: rgb(75, 75, 75);"></path>
</g>
</svg>
